<svg width="40" height="40" viewBox="0 0 40 40" fill="none" xmlns="http://www.w3.org/2000/svg">
<path d="M6.58026 22.1952C6.2886 23.0675 5.34533 23.5387 4.4726 23.2478C3.59936 22.9567 3.12742 22.0129 3.4185 21.1396C3.38813 21.2412 3.41973 21.1359 3.41973 21.1359C3.43817 21.0813 3.45783 21.027 3.47797 20.973C3.51227 20.8808 3.56157 20.7535 3.6272 20.596C3.7583 20.2813 3.9553 19.8445 4.2288 19.3262C4.77433 18.2926 5.63336 16.9179 6.89603 15.5405C9.44706 12.7575 13.6218 10 19.9996 10C26.3775 10 30.5522 12.7575 33.1032 15.5405C34.366 16.9179 35.225 18.2926 35.7703 19.3262C36.044 19.8445 36.241 20.2813 36.372 20.596C36.4377 20.7535 36.487 20.8808 36.5213 20.973C36.5317 21.0005 36.566 21.1749 36.599 21.3424C36.629 21.4948 36.658 21.6414 36.6667 21.6667C36.6667 21.6667 36.945 22.7751 35.5267 23.2478C34.6553 23.5383 33.7137 23.0689 33.4203 22.1992L33.419 22.1952L33.4177 22.1916L33.3973 22.1358C33.3773 22.0815 33.3433 21.994 33.2952 21.878C33.1984 21.6458 33.0438 21.3014 32.8225 20.8821C32.3785 20.0407 31.675 18.9154 30.646 17.7929C28.6137 15.5758 25.2885 13.3333 19.9996 13.3333C14.7108 13.3333 11.3855 15.5758 9.35323 17.7929C8.32423 18.9154 7.6208 20.0407 7.17673 20.8821C6.95546 21.3014 6.80086 21.6458 6.7041 21.878C6.6558 21.994 6.6221 22.0815 6.6019 22.1358L6.58026 22.1952Z" fill="white"/>
<path d="M13.3335 23.3337C13.3335 19.6518 16.3183 16.667 20.0002 16.667C23.6821 16.667 26.6668 19.6518 26.6668 23.3337C26.6668 27.0156 23.6821 30.0003 20.0002 30.0003C16.3183 30.0003 13.3335 27.0156 13.3335 23.3337Z" fill="white"/>
</svg>
