<svg width="18" height="18" viewBox="0 0 18 18" fill="none" xmlns="http://www.w3.org/2000/svg">
<path fill-rule="evenodd" clip-rule="evenodd" d="M9.00028 2.35956C5.33292 2.35956 2.35993 5.33254 2.35993 8.99991C2.35993 12.6673 5.33292 15.6403 9.00028 15.6403C12.6676 15.6403 15.6406 12.6673 15.6406 8.99991C15.6406 5.33254 12.6676 2.35956 9.00028 2.35956ZM0.640625 8.99991C0.640625 4.383 4.38337 0.640252 9.00028 0.640252C13.6172 0.640252 17.3599 4.383 17.3599 8.99991C17.3599 13.6168 13.6172 17.3596 9.00028 17.3596C4.38337 17.3596 0.640625 13.6168 0.640625 8.99991Z" fill="#FC2E7F"/>
<path fill-rule="evenodd" clip-rule="evenodd" d="M1.14046 6.50018C1.14046 6.0254 1.52534 5.64052 2.00012 5.64052H16.0001C16.4749 5.64052 16.8598 6.0254 16.8598 6.50018C16.8598 6.97495 16.4749 7.35983 16.0001 7.35983H2.00012C1.52534 7.35983 1.14046 6.97495 1.14046 6.50018Z" fill="#FC2E7F"/>
<path fill-rule="evenodd" clip-rule="evenodd" d="M1.14046 11.4995C1.14046 11.0247 1.52534 10.6398 2.00012 10.6398H16.0001C16.4749 10.6398 16.8598 11.0247 16.8598 11.4995C16.8598 11.9743 16.4749 12.3592 16.0001 12.3592H2.00012C1.52534 12.3592 1.14046 11.9743 1.14046 11.4995Z" fill="#FC2E7F"/>
<path fill-rule="evenodd" clip-rule="evenodd" d="M9.0385 0.770606C9.44129 1.02196 9.56404 1.55224 9.31269 1.95502C7.994 4.06818 7.29488 6.50904 7.29488 8.99991C7.29488 11.4908 7.994 13.9316 9.31269 16.0448C9.56404 16.4476 9.44129 16.9779 9.0385 17.2292C8.63572 17.4806 8.10544 17.3578 7.85409 16.955C6.36502 14.5688 5.57558 11.8126 5.57558 8.99991C5.57558 6.18721 6.36502 3.43099 7.85409 1.0448C8.10544 0.642014 8.63572 0.519255 9.0385 0.770606Z" fill="#FC2E7F"/>
<path fill-rule="evenodd" clip-rule="evenodd" d="M8.96211 0.770606C9.36489 0.519255 9.89517 0.642014 10.1465 1.0448C11.6356 3.43099 12.425 6.18721 12.425 8.99991C12.425 11.8126 11.6356 14.5688 10.1465 16.955C9.89517 17.3578 9.36489 17.4806 8.96211 17.2292C8.55932 16.9779 8.43657 16.4476 8.68792 16.0448C10.0066 13.9316 10.7057 11.4908 10.7057 8.99991C10.7057 6.50904 10.0066 4.06818 8.68792 1.95502C8.43657 1.55224 8.55932 1.02196 8.96211 0.770606Z" fill="#FC2E7F"/>
</svg>
