<svg width="38" height="38" viewBox="0 0 38 38" fill="none" xmlns="http://www.w3.org/2000/svg">
<path d="M26.9744 0H11.0445C4.12506 0 0 4.123 0 11.039V26.942C0 33.877 4.12506 38 11.0445 38H26.9554C33.8749 38 37.9999 33.877 37.9999 26.961V11.039C38.0189 4.123 33.8939 0 26.9744 0ZM28.5142 28.975H9.50474C8.72535 28.975 8.07903 28.329 8.07903 27.55C8.07903 26.771 8.72535 26.125 9.50474 26.125H28.5142C29.2936 26.125 29.9399 26.771 29.9399 27.55C29.9399 28.329 29.2936 28.975 28.5142 28.975ZM28.5142 20.425H9.50474C8.72535 20.425 8.07903 19.779 8.07903 19C8.07903 18.221 8.72535 17.575 9.50474 17.575H28.5142C29.2936 17.575 29.9399 18.221 29.9399 19C29.9399 19.779 29.2936 20.425 28.5142 20.425ZM28.5142 11.875H9.50474C8.72535 11.875 8.07903 11.229 8.07903 10.45C8.07903 9.671 8.72535 9.025 9.50474 9.025H28.5142C29.2936 9.025 29.9399 9.671 29.9399 10.45C29.9399 11.229 29.2936 11.875 28.5142 11.875Z" fill="#FF4D00"/>
</svg>
